<?xml version="1.0" encoding="UTF-8"?>
<svg xmlns="http://www.w3.org/2000/svg" xmlns:xlink="http://www.w3.org/1999/xlink" viewBox="0 0 307.29 132.19">
  <defs>
    <style>
      .cls-1 {
        clip-path: url(#clippath-6);
      }

      .cls-2 {
        clip-path: url(#clippath-4);
      }

      .cls-3 {
        fill: url(#linear-gradient-2);
      }

      .cls-4 {
        mask: url(#mask);
      }

      .cls-5 {
        fill: none;
      }

      .cls-6 {
        fill: url(#linear-gradient-3);
      }

      .cls-7 {
        clip-path: url(#clippath-1);
      }

      .cls-8 {
        mix-blend-mode: screen;
        opacity: .4;
      }

      .cls-9 {
        isolation: isolate;
      }

      .cls-10 {
        clip-path: url(#clippath-5);
      }

      .cls-11 {
        fill: #ed1b35;
      }

      .cls-12 {
        clip-path: url(#clippath-3);
      }

      .cls-13 {
        mix-blend-mode: multiply;
      }

      .cls-14 {
        clip-path: url(#clippath-2);
      }

      .cls-15 {
        fill: url(#linear-gradient);
      }

      .cls-16 {
        clip-path: url(#clippath);
      }
    </style>
    <clipPath id="clippath">
      <rect class="cls-5" width="307.29" height="132.19"/>
    </clipPath>
    <clipPath id="clippath-1">
      <path class="cls-5" d="M35.46,0c-.34,0-.67.16-.92.42L.37,34.53c-.37.38-.37.98,0,1.35l10.44,10.71c.4.41,1.07.41,1.47,0l12.01-12c.3-.3.83-.09.83.34l.16,26.07c0,.38.15.75.42,1.02l8.94,8.94c.23.23.52.4.82.4s.59-.17.82-.4l8.94-8.94c.27-.27.42-.64.42-1.02l.16-26.07c0-.43.52-.65.82-.34l12.01,12c.41.41,1.07.4,1.47,0l10.44-10.71c.37-.38.37-.98,0-1.35L36.38.42c-.26-.26-.59-.42-.92-.42Z"/>
    </clipPath>
    <clipPath id="clippath-2">
      <rect class="cls-5" x="35.46" y="-2.93" width="37.1" height="76.28"/>
    </clipPath>
    <clipPath id="clippath-3">
      <polygon class="cls-5" points="35.46 -2.93 35.46 -2.93 35.46 73.35 72.56 73.35 72.56 -2.93 35.46 -2.93"/>
    </clipPath>
    <linearGradient id="linear-gradient" x1="-1842.38" y1="432.57" x2="-1841.38" y2="432.57" gradientTransform="translate(-245742.17 -57690.81) rotate(180) scale(133.45 -133.45)" gradientUnits="userSpaceOnUse">
      <stop offset="0" stop-color="#fff"/>
      <stop offset=".18" stop-color="#fff"/>
      <stop offset=".38" stop-color="#fcfcfc"/>
      <stop offset=".49" stop-color="#f4f4f4"/>
      <stop offset=".58" stop-color="#e6e6e6"/>
      <stop offset=".66" stop-color="#d2d2d2"/>
      <stop offset=".73" stop-color="#b9b9b9"/>
      <stop offset=".8" stop-color="#999"/>
      <stop offset=".86" stop-color="#737373"/>
      <stop offset=".92" stop-color="#484848"/>
      <stop offset=".98" stop-color="#181818"/>
      <stop offset="1" stop-color="#000"/>
    </linearGradient>
    <clipPath id="clippath-4">
      <rect class="cls-5" x="-1.64" y="-2.93" width="37.1" height="76.28"/>
    </clipPath>
    <clipPath id="clippath-5">
      <polygon class="cls-5" points="-1.64 -2.93 -1.64 -2.93 -1.64 73.35 35.46 73.35 35.46 -2.93 -1.64 -2.93"/>
    </clipPath>
    <clipPath id="clippath-6">
      <rect class="cls-5" x="-21.77" y="-5.96" width="77.36" height="82.33" transform="translate(-18.63 19.01) rotate(-39.85)"/>
    </clipPath>
    <linearGradient id="linear-gradient-2" x1="-1842.38" y1="432.57" x2="-1841.38" y2="432.57" gradientTransform="translate(-245779.26 -57690.85) rotate(180) scale(133.45 -133.45)" gradientUnits="userSpaceOnUse">
      <stop offset="0" stop-color="#000"/>
      <stop offset=".35" stop-color="#000"/>
      <stop offset=".38" stop-color="#040404"/>
      <stop offset=".41" stop-color="#121212"/>
      <stop offset=".45" stop-color="#282828"/>
      <stop offset=".48" stop-color="#484848"/>
      <stop offset=".52" stop-color="#707070"/>
      <stop offset=".55" stop-color="#a2a2a2"/>
      <stop offset=".59" stop-color="#dbdbdb"/>
      <stop offset=".61" stop-color="#fff"/>
      <stop offset="1" stop-color="#fff"/>
    </linearGradient>
    <mask id="mask" x="-94.64" y="-76.35" width="223.1" height="223.11" maskUnits="userSpaceOnUse">
      <g class="cls-1">
        <rect class="cls-3" x="-62.27" y="-44.01" width="158.36" height="158.44" transform="translate(-18.63 19.01) rotate(-39.85)"/>
      </g>
    </mask>
    <linearGradient id="linear-gradient-3" x1="-1842.38" y1="432.57" x2="-1841.38" y2="432.57" gradientTransform="translate(-245779.27 -57690.84) rotate(180) scale(133.45 -133.45)" gradientUnits="userSpaceOnUse">
      <stop offset="0" stop-color="#fff"/>
      <stop offset=".35" stop-color="#fff"/>
      <stop offset=".61" stop-color="#fff"/>
      <stop offset="1" stop-color="#fff"/>
    </linearGradient>
  </defs>
  <g class="cls-9">
    <g id="Layer_2">
      <g id="Layer_1-2" data-name="Layer_1">
        <g id="Madinet_Masr">
          <g class="cls-16">
            <path d="M131.93,132.05l-.25-3.6h-1.36c-2.6,0-4.18-1.38-4.18-3.73s1.66-3.67,3.89-3.67c.94,0,1.94.25,2.66.62l.71,10.38h-1.47ZM131.59,127.07l-.31-4.42c-.36-.14-.77-.2-1.24-.2-1.44,0-2.46.74-2.46,2.29s1.04,2.32,2.63,2.32h1.38Z"/>
            <path d="M139.77,122.7c2.4-.08,4.03,3.1,3.98,5.79,0,2.46-1.33,3.7-3.98,3.7s-3.97-1.24-3.97-3.72c-.03-2.67,1.55-5.86,3.97-5.78M139.77,124.09c-1.38-.08-2.57,2.34-2.54,4.23,0,1.69.82,2.46,2.54,2.46s2.56-.76,2.56-2.48c.03-1.86-1.18-4.29-2.56-4.22"/>
            <path d="M151.33,132.05l-.25-3.6h-1.36c-2.6,0-4.18-1.38-4.18-3.73s1.66-3.67,3.89-3.67c.94,0,1.94.25,2.66.62l.71,10.38h-1.47ZM150.99,127.07l-.31-4.42c-.36-.14-.77-.2-1.24-.2-1.44,0-2.46.74-2.46,2.29s1.04,2.32,2.63,2.32h1.38Z"/>
            <path d="M172.5,123.1c-.56,0-.99.44-.99.99s.43.99.99.99,1-.45,1-.99-.44-.99-1-.99M169.55,123.1c-.57,0-1.01.44-1.01.99s.45.99,1.01.99.98-.45.98-.99-.44-.99-.98-.99"/>
            <path d="M239.1,124.57v6.18c-.76.79-2,1.3-3.18,1.3-.91,0-1.74-.28-2.49-.84-.76.55-1.58.84-2.48.84-1.07,0-2.02-.42-2.59-.87-.62.47-1.87.85-3.24.87-.03,0-.06,0-.1,0h-3.89s-.08,0-.11,0c-1.12-.01-2.16-.27-3.12-.8-.73.51-1.66.81-2.57.81s-1.74-.28-2.49-.84c-.76.55-1.58.84-2.48.84-1.07,0-2.02-.42-2.58-.87-.62.47-1.85.84-3.21.87-.03,0-.07,0-.12,0h-23.25s-.08,0-.11,0c-1.21-.02-2.37-.34-3.29-.83-1.01.55-2.35.84-4.06.84h-6.12c-1.36,0-2.43-.28-3.21-.82-.76-.54-1.15-1.49-1.15-2.8,0-.76.14-1.61.4-2.59l1.36.23c-.2.76-.29,1.41-.29,1.95,0,1.7,1.01,2.55,3.01,2.55h6.21c1.47,0,2.53-.28,3.14-.59v-5.58h1.47v5.56c.76.4,1.63.6,2.63.6h23.23c.91,0,1.78-.2,2.64-.62v-3.61h1.47v3.64c.55.39,1.13.59,1.77.59s1.22-.19,1.75-.57v-3.66h1.47v3.66c.54.39,1.13.57,1.77.57s1.22-.2,1.75-.59v-4.34h1.47v4.32c.76.4,1.63.6,2.64.6h3.87c.91,0,1.78-.2,2.64-.62v-3.61h1.47v3.64c.54.39,1.13.59,1.77.59s1.22-.19,1.75-.57v-3.66h1.47v3.66c.55.39,1.13.57,1.77.57s1.22-.2,1.75-.59v-5.42h1.47Z"/>
            <path d="M244.77,118.4v1.1h-3.21v-1.1h.74c-.23-.26-.36-.59-.36-.95,0-.79.59-1.39,1.46-1.39.48,0,.88.15,1.22.48l-.6.67c-.12-.12-.29-.19-.51-.19-.37,0-.62.26-.62.64,0,.43.33.74,1.02.74h.85ZM246.78,130.58v1.44s-.08.03-.25.03h-.02c-1.35,0-2.59-.36-3.5-.85-.45-.25-.59-.48-.59-1.02v-9.44h1.47v9.23c.73.39,1.69.6,2.63.6h.25Z"/>
            <path d="M250.64,131.12c-.48.26-1.09.5-1.84.67-.76.17-1.5.26-2.25.26h-.02c-.17,0-.25-.01-.25-.03v-1.44h.25c1.05,0,2.03-.2,2.63-.46v-5.7h1.47v6.71ZM248.38,120.93c.54,0,.98.43.98.99s-.43.99-.98.99-1.01-.45-1.01-.99.43-.99,1.01-.99M251.34,120.93c.56,0,.99.43.99.99s-.43.99-.99.99-.99-.45-.99-.99.43-.99.99-.99"/>
            <polygon points="74.7 82.11 81.81 104.7 88.96 82.11 96.14 82.11 96.14 107.49 91.97 107.49 91.97 85.62 85.08 107.49 78.55 107.49 71.73 85.77 71.73 107.49 67.56 107.49 67.56 82.11 74.7 82.11"/>
            <path d="M102.37,90.85c1.86-1.93,4.12-2.9,6.78-2.9s4.64.97,6.16,2.9v-2.58h4.17v19.22h-4.17v-2.58c-1.52,1.91-3.58,2.87-6.16,2.87s-4.89-.97-6.76-2.92c-1.87-1.95-2.81-4.27-2.81-6.98s.93-5.1,2.79-7.03M103.46,97.88c0,1.69.59,3.14,1.76,4.33,1.17,1.2,2.6,1.8,4.3,1.8s3.1-.6,4.3-1.81c1.2-1.21,1.8-2.65,1.8-4.32s-.6-3.11-1.8-4.33c-1.2-1.22-2.63-1.83-4.3-1.83s-3.13.6-4.3,1.81c-1.17,1.21-1.76,2.66-1.76,4.35"/>
            <path d="M125.73,90.85c1.86-1.93,4.12-2.9,6.78-2.9s4.64.97,6.16,2.9v-8.74h4.17v25.39h-4.17v-2.54c-1.52,1.89-3.58,2.83-6.16,2.83s-4.89-.97-6.76-2.92c-1.87-1.95-2.81-4.27-2.81-6.98s.93-5.1,2.79-7.03M126.82,97.88c0,1.69.58,3.14,1.74,4.33,1.16,1.2,2.6,1.8,4.32,1.8s3.1-.6,4.3-1.81c1.2-1.21,1.8-2.65,1.8-4.32s-.6-3.11-1.8-4.33c-1.2-1.22-2.63-1.83-4.3-1.83s-3.13.6-4.3,1.81c-1.17,1.21-1.76,2.66-1.76,4.35"/>
            <path d="M147.31,81.56c.53-.51,1.17-.76,1.92-.76s1.38.25,1.9.74.78,1.12.78,1.87-.25,1.37-.76,1.85c-.53.51-1.17.76-1.92.76s-1.39-.25-1.92-.74c-.53-.5-.8-1.12-.8-1.87s.27-1.34.8-1.85M151.26,107.49h-4.17v-19.22h4.17v19.22Z"/>
            <path d="M155.36,88.27h4.17v2.54c1.47-1.91,3.47-2.87,5.98-2.87,2.2,0,4.09.71,5.68,2.12,1.58,1.42,2.38,3.3,2.38,5.64v11.79h-4.17v-10.66c0-1.52-.45-2.74-1.36-3.65-.91-.91-2.03-1.36-3.35-1.36-1.52,0-2.76.55-3.72,1.65-.96,1.1-1.43,2.47-1.43,4.12v9.9h-4.17v-19.22Z"/>
            <path d="M179.37,90.85c1.93-1.93,4.25-2.9,6.96-2.9,2.42,0,4.53.78,6.33,2.34,1.8,1.56,2.91,3.51,3.32,5.86.15.58.22,1.16.22,1.74,0,.51-.06,1.02-.18,1.52h-15.45c.24,1.43.9,2.56,1.98,3.41,1.07.85,2.34,1.27,3.79,1.27,2.22,0,4-.8,5.33-2.39l3.7.98c-.77,1.55-2.01,2.79-3.72,3.72-1.7.93-3.48,1.4-5.31,1.4-2.78,0-5.12-.97-7.02-2.9-1.9-1.94-2.85-4.27-2.85-7s.97-5.1,2.9-7.04M180.56,96.21h11.39c-.24-1.28-.88-2.36-1.9-3.24-1.03-.88-2.28-1.32-3.75-1.32s-2.73.44-3.77,1.32c-1.04.88-1.69,1.96-1.96,3.24"/>
            <path d="M197.83,91.9v-3.63h3.63v-4.61l4.1-1.2v5.8h5.91v3.63h-5.91v9.36c0,1.18.34,1.92,1.03,2.21.69.29,1.31.44,1.87.44.87,0,1.92-.19,3.15-.58v4.02c-1.3.36-2.5.54-3.59.54-1.43,0-2.88-.42-4.35-1.25-1.48-.83-2.21-2.62-2.21-5.35v-9.39h-3.63Z"/>
            <polygon points="227.85 82.11 234.96 104.7 242.1 82.11 249.28 82.11 249.28 107.49 245.11 107.49 245.11 85.62 238.22 107.49 231.7 107.49 224.88 85.77 224.88 107.49 220.71 107.49 220.71 82.11 227.85 82.11"/>
            <path d="M255.52,90.85c1.86-1.93,4.12-2.9,6.78-2.9s4.64.97,6.16,2.9v-2.58h4.17v19.22h-4.17v-2.58c-1.52,1.91-3.58,2.87-6.16,2.87s-4.89-.97-6.76-2.92c-1.87-1.95-2.81-4.27-2.81-6.98s.93-5.1,2.79-7.03M256.61,97.88c0,1.69.59,3.14,1.76,4.33,1.17,1.2,2.6,1.8,4.3,1.8s3.1-.6,4.3-1.81c1.2-1.21,1.8-2.65,1.8-4.32s-.6-3.11-1.8-4.33c-1.2-1.22-2.63-1.83-4.3-1.83s-3.13.6-4.3,1.81c-1.17,1.21-1.76,2.66-1.76,4.35"/>
            <path d="M276.12,93.75c0-1.81.74-3.23,2.21-4.26,1.47-1.03,3.36-1.54,5.66-1.54,2.73,0,5.21.66,7.43,1.99v4.02c-2.8-1.62-5.28-2.43-7.43-2.43-1.06,0-1.93.2-2.59.6-.66.4-1,.92-1,1.58,0,.22.04.42.13.6.09.18.23.35.43.49.21.14.41.27.62.36.21.1.5.2.89.31.39.11.71.2.98.26.27.06.66.15,1.18.27.52.12.94.22,1.25.29,2.22.53,3.84,1.28,4.84,2.25,1,.97,1.52,2.15,1.54,3.55,0,1.31-.41,2.41-1.22,3.3-.81.89-1.77,1.52-2.88,1.87-1.11.35-2.33.53-3.66.53-2.73,0-5.39-.83-7.98-2.5v-4.24c.87.75,2.07,1.45,3.59,2.1,1.52.65,2.98.98,4.39.98.94,0,1.76-.19,2.45-.56.69-.37,1.03-.88,1.03-1.51s-.4-1.19-1.2-1.61c-.8-.42-2.04-.8-3.74-1.14-2.37-.48-4.12-1.15-5.24-2.01s-1.69-2.04-1.69-3.54"/>
            <path d="M294.91,88.27h4.17v3.16c.6-1.21,1.43-2.07,2.48-2.59,1.05-.52,2.13-.78,3.25-.78.53,0,1.09.05,1.67.14v4.46c-.75-.24-1.46-.36-2.14-.36-1.09,0-2.24.4-3.45,1.2-1.21.8-1.81,2.21-1.81,4.24v9.76h-4.17v-19.22Z"/>
            <path d="M239.43,62.05v-.78c.01-3.6.03-7.2.02-10.8,0-.44.14-.68.51-.9,1.02-.62,2.02-1.27,3.01-1.94.48-.32.78.07,1.13.21.13.05.25.33.25.5,0,5.7,0,11.4-.02,17.09,0,.09-.01.18-.02.35h-.58c-2.91,0-5.83-.07-8.74.02-2.55.08-4.6-.74-6.08-2.84-.06.02-.11.02-.12.04-1.18,1.84-2.96,2.64-5.04,2.72-2.05.09-18.15.07-20.21-.06-1.67-.11-3.11-.82-4.02-2.38-1.09,1.03-2.35,1.72-3.77,2.1-1.85.5-3.72.58-5.58.14-2.61-.61-4.46-2.2-5.43-4.7-.99-2.56-1.11-5.19-.26-7.81,1.05-3.24,3.39-4.99,6.7-5.45,1.03-.14,2.09-.11,3.14-.12,2.24-.02,4.48,0,6.8,0v.66c0,3.78,0,7.56,0,11.34,0,1.56.51,2.33,2.04,2.48,1.72.17,17.49.18,19.22.12,1.21-.05,2.29-1.33,2.4-2.71.08-1.04.02-2.1.02-3.14,0-.85-.03-1.7,0-2.55,0-.18.16-.44.32-.53,1.13-.64,2.29-1.24,3.44-1.85.51-.27,1.2.16,1.21.74,0,2.39,0,4.77.03,7.16,0,.35.13.75.33,1.04.83,1.2,2.09,1.75,3.48,1.82,1.91.1,3.83.02,5.81.02M196.2,51.17c-.09-.03-.12-.05-.16-.05-1.07,0-2.13.03-3.2-.02-1.46-.07-2.48.31-3.26,2.21-.79,1.93-.86,3.94-.34,5.95.52,2.01,1.96,2.99,4.02,2.82,1.63-.14,2.88-1.18,2.91-2.61.06-2.76.02-5.52.02-8.31"/>
            <rect x="187.6" y="38.07" width="3.91" height="3.96"/>
            <rect x="194.54" y="38.08" width="3.92" height="3.94"/>
            <rect x="224.3" y="42.03" width="3.92" height="3.96"/>
            <rect x="233.32" y="69.27" width="3.91" height="3.96"/>
            <rect x="240.26" y="69.29" width="3.91" height="3.96"/>
            <path d="M307.24,55.11c-.21-2.95-1.58-5.28-4.26-6.69-1.32-.69-2.72-.92-4.17-.92s-2.84.23-4.17.92c-2.68,1.41-4.05,3.74-4.26,6.69-.03.46-.06.94-.06,1.43,0,1.09.1,2.17.3,3.22.1.54.26,1.06.47,1.53-.09.05-.18.08-.26.12-.97.35-1.99.67-3.01.74-.26.02-15.34.09-16.59,0-1.02-.07-2.04-.39-3-.74-.96-.36-1.59-1.08-1.9-2.12-.67-2.26-1.52-4.46-2.81-6.45-.78-1.21-1.63-2.45-2.7-3.39-2.49-2.22-5.6-2.18-8.71-2v3.73c.85,0,1.67-.02,2.5,0,1.53.03,2.74.77,3.58,1.98,1.29,1.87,2.25,3.92,2.94,6.09.28.91.49,1.85.77,2.84h-12.21v3.61c.08.02.12.03.14.03,4.85,0,9.71,0,14.56,0,.17,0,.4-.14.51-.28.4-.55.77-1.13,1.16-1.73,2.03,1.78,2.7,2.02,5.37,2.02,2.16,0,7.8,0,13.26,0h3.17c2.45-.01,3.15-.29,5.06-1.95,1.05.9,2.41,1.49,3.97,1.73.63.09,3.2.09,3.83,0,3.31-.51,5.66-2.57,6.27-5.75.2-1.05.29-2.14.29-3.22,0-.49-.02-.97-.05-1.43M301.79,60.23c-.55,1.12-1.42,1.78-2.69,1.84-.1,0-.2,0-.29,0-.1,0-.19,0-.28,0-1.28-.07-2.14-.73-2.7-1.84-.52-1.04-.66-2.15-.62-3.3,0-.26-.01-.53.01-.8.07-1.18.22-2.36.87-3.4.65-1.04,1.68-1.58,2.72-1.58s2.08.54,2.72,1.58c.64,1.05.8,2.22.87,3.4.01.27,0,.54,0,.8.04,1.15-.1,2.27-.62,3.3"/>
            <path d="M177.83,55.15c-.21-2.95-1.58-5.28-4.26-6.68-1.33-.7-2.73-.93-4.17-.93s-2.84.23-4.16.93c-2.68,1.41-4.05,3.73-4.26,6.68-.03.46-.06.95-.06,1.44,0,1.08.1,2.17.29,3.22.1.55.27,1.06.47,1.53-.09.05-.18.08-.27.12-.96.35-1.98.67-3,.74-.06,0-17.33-.06-18.89-.14-.95-.05-1.84-.4-2.6-.99-.68-.52-1.16-1.13-1.23-2.06-.17-1.95-.59-3.85-1.35-5.67-1.63-3.97-4.69-5.98-8.97-5.88-2.73.06-5.16,1.09-7.44,2.54-3.35,2.14-6.07,4.96-8.59,7.99-.65.77-1.26,1.58-1.96,2.45-.17-.25-.36-.42-.41-.64-.1-.41-.17-.86-.18-1.28-.02-2.12,0-4.23-.02-6.35,0-.24-.09-.62-.25-.67-.41-.16-.79-.59-1.34-.19-.93.68-1.9,1.32-2.88,1.93-.33.21-.43.45-.43.83.02,1.59.03,3.18,0,4.78-.03,2.02-1.3,3.26-3.3,3.26-.33,0-12.68-.02-13,0-2.03.14-3.75-.61-5.3-1.84-.28-.22-.39-.45-.39-.82.01-1.63.01-6.55,0-10.37,0-.68-.82-1.01-1.29-.53l-3.4,3.48c-.14.14-.22.32-.22.52,0,5.28,0,10.99.03,14.63,0,1.05-.42,1.73-1.3,2.17-.42.21-.85.4-1.29.56-1.4.47-2.85.64-4.32.67-.57.02-.64.13-.43.67.31.77.64,1.53.94,2.31.11.3.26.42.6.39.82-.07,1.66-.09,2.49-.16,2.24-.22,4.29-.98,6.13-2.29,1.38-.98,2.15-2.29,2.08-4.05-.03-.88,0-1.78,0-2.66,0-.15.02-.3.04-.51.22.13.4.22.56.33.96.6,1.99,1.03,3.14,1.09,1.05.06,14.13.09,15.17.07,2.14-.04,4.23-.28,5.86-2,1.6,1.71,3.63,2.04,5.82,2.02,7.1-.04,14.18-.01,21.28-.01,1.57,0,3.03-.24,3.87-1.9,1.44,1.63,2.48,1.93,4.47,1.91,1.91-.01,18.34,0,18.34,0,2.45-.01,3.14-.29,5.06-1.95,1.05.9,2.4,1.48,3.97,1.72.63.09,3.2.09,3.83,0,3.31-.51,5.66-2.57,6.27-5.75.2-1.05.29-2.14.29-3.22,0-.49-.01-.97-.05-1.44M129.48,62.11h-16.8c.14-.27.21-.45.32-.6,2.74-3.81,6.08-6.97,10.03-9.48,1.04-.66,2.16-1.11,3.44-.85,1.22.24,2.09.95,2.69,2.01.82,1.46,1.15,3.07,1.38,4.71.12.9.19,1.83.27,2.75.09,1.1-.25,1.46-1.33,1.47M172.38,60.27c-.56,1.12-1.42,1.78-2.7,1.84-.09,0-.19,0-.29,0s-.18,0-.28,0c-1.28-.07-2.14-.73-2.69-1.84-.52-1.04-.66-2.15-.62-3.3,0-.26-.01-.53,0-.8.07-1.19.23-2.36.87-3.41.64-1.04,1.68-1.58,2.71-1.58s2.07.54,2.72,1.58c.64,1.05.79,2.22.87,3.41.02.26.01.54.01.8.04,1.15-.1,2.27-.62,3.3"/>
            <polygon points="121.71 121.21 123.18 121.21 123.97 132.05 122.5 132.05 121.71 121.21"/>
          </g>
          <g class="cls-7">
            <path class="cls-11" d="M70.55,35.89l-10.44,10.71c-.4.41-1.07.41-1.47,0l-12.01-12c-.3-.3-.82-.09-.82.34l-.16,26.07c0,.38-.15.75-.42,1.02l-8.94,8.94c-.23.23-.52.4-.82.4s-.59-.17-.82-.4l-8.94-8.94c-.27-.27-.42-.64-.42-1.02l-.16-26.07c0-.43-.52-.65-.83-.34l-12.01,12c-.41.41-1.07.4-1.47,0L.37,35.89c-.37-.38-.37-.98,0-1.35L34.54.42c.26-.26.59-.42.92-.42s.67.16.92.42l34.17,34.11c.37.38.37.98,0,1.35"/>
            <g class="cls-13">
              <g class="cls-14">
                <g class="cls-12">
                  <rect class="cls-15" x="15.33" y="-5.96" width="77.36" height="82.33" transform="translate(-10.02 42.78) rotate(-39.85)"/>
                </g>
              </g>
            </g>
            <g class="cls-8">
              <g class="cls-2">
                <g class="cls-10">
                  <g class="cls-4">
                    <rect class="cls-6" x="-21.77" y="-5.96" width="77.36" height="82.33" transform="translate(-18.63 19.01) rotate(-39.85)"/>
                  </g>
                </g>
              </g>
            </g>
          </g>
        </g>
      </g>
    </g>
  </g>
</svg>